<?xml version="1.0" encoding="UTF-8" standalone="no"?>
<!DOCTYPE svg PUBLIC "-//W3C//DTD SVG 1.1//EN" "http://www.w3.org/Graphics/SVG/1.1/DTD/svg11.dtd">
<svg width="100%" height="100%" viewBox="0 0 72 72" version="1.1" xmlns="http://www.w3.org/2000/svg" xmlns:xlink="http://www.w3.org/1999/xlink" xml:space="preserve" xmlns:serif="http://www.serif.com/" style="fill-rule:evenodd;clip-rule:evenodd;stroke-linejoin:round;stroke-miterlimit:2;">
    <g transform="matrix(1,0,0,1,-16967.2,-572.162)">
        <g id="ginko_icon_light" transform="matrix(0.0832127,0,0,0.324092,17021.7,538.073)">
            <rect x="-654.86" y="105.183" width="855.665" height="219.697" style="fill:none;"/>
            <g transform="matrix(12.0174,0,0,3.08554,-203913,-1588.07)">
                <path d="M16982.7,562.272L16982.7,606.472C16982.7,612.755 16977.6,617.857 16971.3,617.857L16927.1,617.857C16920.8,617.857 16915.7,612.755 16915.7,606.472L16915.7,562.272C16915.7,555.988 16920.8,550.887 16927.1,550.887L16971.3,550.887C16977.6,550.887 16982.7,555.988 16982.7,562.272Z" style="fill:rgb(45,212,191);"/>
            </g>
            <g transform="matrix(31.7636,0,0,8.1555,-608.191,117.165)">
                <path d="M3,3.894C3,3.4 3.4,3 3.894,3C5.028,3 6.972,3 8.106,3C8.6,3 9,3.4 9,3.894C9,4.553 9,5.447 9,6.106C9,6.6 8.6,7 8.106,7C6.972,7 5.028,7 3.894,7C3.4,7 3,6.6 3,6.106C3,5.447 3,4.553 3,3.894ZM15,10.894C15,10.4 15.4,10 15.894,10C17.028,10 18.972,10 20.106,10C20.6,10 21,10.4 21,10.894C21,11.553 21,12.447 21,13.106C21,13.6 20.6,14 20.106,14C18.972,14 17.028,14 15.894,14C15.4,14 15,13.6 15,13.106C15,12.447 15,11.553 15,10.894ZM15,17.894C15,17.4 15.4,17 15.894,17C17.028,17 18.972,17 20.106,17C20.6,17 21,17.4 21,17.894C21,18.553 21,19.447 21,20.106C21,20.6 20.6,21 20.106,21C18.972,21 17.028,21 15.894,21C15.4,21 15,20.6 15,20.106C15,19.447 15,18.553 15,17.894ZM13,12.195C13,12.442 12.8,12.642 12.553,12.642C11.392,12.642 8.289,12.642 7.128,12.642C6.882,12.642 6.681,12.842 6.681,13.089C6.681,14.151 6.681,16.816 6.681,17.878C6.681,18.125 6.882,18.325 7.128,18.325C8.182,18.325 10.73,18.325 12.553,18.325C12.8,18.325 13,18.525 13,18.772C13,18.908 13,19.057 13,19.193C13,19.311 12.953,19.425 12.869,19.509C12.785,19.593 12.672,19.64 12.553,19.64C11.19,19.64 7.092,19.64 5.729,19.64C5.61,19.64 5.496,19.593 5.413,19.509C5.329,19.425 5.282,19.311 5.282,19.193C5.282,17.458 5.282,11.181 5.282,9.447C5.282,9.328 5.329,9.215 5.413,9.131C5.496,9.047 5.61,9 5.729,9C5.89,9 6.073,9 6.235,9C6.353,9 6.467,9.047 6.551,9.131C6.634,9.215 6.681,9.328 6.681,9.447C6.681,9.861 6.681,10.474 6.681,10.888C6.681,11.135 6.882,11.335 7.128,11.335C8.289,11.335 11.392,11.335 12.553,11.335C12.8,11.335 13,11.535 13,11.782C13,11.915 13,12.061 13,12.195Z" style="fill:white;fill-rule:nonzero;"/>
            </g>
        </g>
    </g>
</svg>
